<?xml version="1.0" encoding="iso-8859-1"?>
<!-- Uploaded to: SVG Repo, www.svgrepo.com, Generator: SVG Repo Mixer Tools -->
<svg fill="#000000" height="800px" width="800px" version="1.1" id="Layer_1" xmlns="http://www.w3.org/2000/svg" xmlns:xlink="http://www.w3.org/1999/xlink" 
	 viewBox="0 0 512 512" xml:space="preserve">
<g>
	<g>
		<g>
			<path d="M256,0C114.617,0,0,114.617,0,256s114.617,256,256,256s256-114.617,256-256S397.383,0,256,0z M256,494.933
				C124.043,494.933,17.067,387.957,17.067,256S124.043,17.067,256,17.067S494.933,124.043,494.933,256S387.957,494.933,256,494.933
				z"/>
			<path d="M162.133,256c20.46,0,34.133-27.346,34.133-59.733c0-32.388-13.673-59.733-34.133-59.733
				c-20.461,0-34.133,27.346-34.133,59.733C128,228.654,141.673,256,162.133,256z M162.133,153.6
				c7.819,0,17.067,18.495,17.067,42.667s-9.248,42.667-17.067,42.667c-7.819,0-17.067-18.495-17.067-42.667
				S154.314,153.6,162.133,153.6z"/>
			<path d="M349.867,136.533c-20.461,0-34.133,27.346-34.133,59.733c0,32.388,13.673,59.733,34.133,59.733
				c20.46,0,34.133-27.346,34.133-59.733C384,163.879,370.327,136.533,349.867,136.533z M349.867,238.933
				c-7.819,0-17.067-18.495-17.067-42.667s9.248-42.667,17.067-42.667s17.067,18.495,17.067,42.667S357.686,238.933,349.867,238.933
				z"/>
			<path d="M392.533,119.467c-18.873,0-34.133-15.26-34.133-34.133c0-4.713-3.82-8.533-8.533-8.533s-8.533,3.82-8.533,8.533
				c0,28.299,22.901,51.2,51.2,51.2c4.713,0,8.533-3.82,8.533-8.533S397.246,119.467,392.533,119.467z"/>
			<path d="M170.667,85.333c0-4.713-3.82-8.533-8.533-8.533s-8.533,3.82-8.533,8.533c0,18.873-15.26,34.133-34.133,34.133
				c-4.713,0-8.533,3.82-8.533,8.533s3.82,8.533,8.533,8.533C147.766,136.533,170.667,113.632,170.667,85.333z"/>
			<path d="M256,298.667c-45.975,0-86.916,24.514-109.784,63.989c-2.362,4.078-0.971,9.299,3.107,11.661
				c4.078,2.362,9.299,0.971,11.661-3.107c19.868-34.298,55.241-55.477,95.016-55.477s75.148,21.179,95.016,55.477
				c2.362,4.078,7.583,5.469,11.661,3.107c4.078-2.362,5.469-7.583,3.107-11.661C342.916,323.18,301.975,298.667,256,298.667z"/>
		</g>
	</g>
</g>
</svg>